<?xml version="1.0" standalone="no"?><!DOCTYPE svg PUBLIC "-//W3C//DTD SVG 1.1//EN" "http://www.w3.org/Graphics/SVG/1.1/DTD/svg11.dtd"><svg t="1541511893857" class="icon" style="" viewBox="0 0 1024 1024" version="1.1" xmlns="http://www.w3.org/2000/svg" p-id="2178" xmlns:xlink="http://www.w3.org/1999/xlink" width="128" height="128"><defs><style type="text/css"></style></defs><path d="M0 28.216889c210.033778-12.288 420.977778-2.503111 631.239111-5.006222-0.455111 207.075556-2.730667 414.378667 1.365333 621.681777-210.944 0.910222-421.660444 1.592889-632.604444-0.455111V28.216889m123.562667 112.412444c2.503111 129.251556-0.455111 258.503111 1.820444 387.527111 129.024-1.820444 258.048-0.682667 387.072-0.682666-0.455111-129.024-0.910222-258.048 0.455111-387.072-129.706667-0.682667-259.413333-1.137778-389.347555 0.227555zM720.440889 22.755556c39.822222 0.227556 79.644444 0.227556 119.466667 0.455111-0.227556 38.912-0.455111 77.824-0.455112 116.736-39.594667 0-79.189333 0.227556-118.784 0.227555 0-39.139556-0.227556-78.279111-0.227555-117.418666zM898.844444 22.755556c40.277333 0.227556 80.554667 0.227556 121.059556 0.227555-0.910222 137.898667-1.820444 276.024889 0.455111 413.923556h-121.742222c1.365333-137.898667 0.910222-276.024889 0.227555-414.151111z" fill="#2c2c2c" p-id="2179"></path><path d="M214.129778 230.513778c70.087111-0.682667 140.174222-0.682667 210.261333 0-1.137778 68.721778-1.137778 137.443556 0 206.165333-70.087111 0.455111-140.174222 0.455111-210.261333 0.227556 0.682667-68.721778 0.682667-137.671111 0-206.392889zM720.668444 229.376c39.822222 0.682667 79.872 1.137778 119.694223 1.592889-1.365333 137.898667-3.868444 276.024889 1.365333 413.696-40.504889 0.455111-81.237333 0.682667-121.969778 0.910222 2.048-138.581333 0.682667-277.390222 0.910222-416.199111zM899.299556 526.791111c40.277333 0.682667 80.554667 0.910222 120.832 1.137778 0 38.912 0.455111 78.051556 1.592888 116.963555-41.187556 0-82.602667 0.227556-123.790222 0.455112l1.365334-118.556445zM7.509333 703.374222c138.581333 1.820444 277.390222-1.820444 415.971556 1.820445 0.227556 40.049778 0.682667 79.872 1.592889 119.694222-140.401778 1.137778-280.803556 0.910222-421.205334 0.227555 1.137778-40.732444 2.048-81.237333 3.640889-121.742222zM510.862222 706.56c39.367111-2.503111 78.961778-3.868444 118.328889-3.413333 1.592889 40.504889 2.275556 81.237333 3.413333 121.969777-40.504889 0.227556-81.009778 0.227556-121.514666 0.455112 0.682667-39.594667 0.455111-79.416889-0.227556-119.011556zM720.896 703.374222c99.214222 0.455111 198.200889 0.682667 297.187556 0 2.503111 99.214222 0.227556 198.428444 1.592888 297.642667-99.669333 0.227556-199.566222 0.227556-299.235555 0.227555 0.682667-99.441778-0.227556-198.656 0.455111-297.870222m89.884444 90.339556l-0.682666 120.832h120.149333l-1.365333-120.604445c-39.367111 0-78.734222 0-118.101334-0.227555zM5.688889 884.053333c39.822222-0.227556 79.416889-0.227556 119.239111-0.455111 0 39.139556 0 78.506667 0.227556 117.646222-40.049778-0.227556-79.872-0.227556-119.694223 0 0.227556-39.139556 0.227556-78.279111 0.227556-117.191111zM213.902222 1001.016889c0.455111-39.367111 0.682667-78.506667 1.592889-117.873778 149.048889 1.820444 297.870222 0.227556 446.919111 0.910222V1001.244444c-149.504 0-299.008 0.227556-448.512-0.227555z" fill="#2c2c2c" p-id="2180"></path></svg>